<svg width="294" height="81" xmlns="http://www.w3.org/2000/svg"><path fill="transparent" d="M-1-1h296v83H-1z"/><g><path fill="#1759e9" d="M11.79 34.401a1.322 1.322 0 0 1-.221-1.004 27.783 27.783 0 0 1 9.865-16.496 1.318 1.318 0 0 1 1.885.24l6.654 8.961a1.317 1.317 0 0 1 .084 1.446 1.329 1.329 0 0 1-.293.35 13.599 13.599 0 0 0-4.58 7.696 1.314 1.314 0 0 1-1.492 1.039L12.664 34.94a1.306 1.306 0 0 1-.873-.539zm12.905 9.221a1.28 1.28 0 0 0-.157-.432 1.317 1.317 0 0 0-1.295-.65l-11.088 1.28a1.332 1.332 0 0 0-.897.511 1.317 1.317 0 0 0-.253 1.001 27.788 27.788 0 0 0 9.353 16.794 1.319 1.319 0 0 0 1.886-.177l6.982-8.703a1.316 1.316 0 0 0-.157-1.812 13.6 13.6 0 0 1-4.374-7.812zM46.377 56.76a1.315 1.315 0 0 0-1.644-.773 13.604 13.604 0 0 1-8.956-.115 1.283 1.283 0 0 0-.45-.08 1.313 1.313 0 0 0-1.21.797l-4.436 10.243a1.31 1.31 0 0 0-.004 1.031 1.3 1.3 0 0 0 .738.72 27.776 27.776 0 0 0 19.22.295 1.32 1.32 0 0 0 .761-.692 1.31 1.31 0 0 0 .028-1.028l-4.047-10.398zm23.522-10.864a1.318 1.318 0 0 0-.873-.539L58 43.665a1.314 1.314 0 0 0-1.49 1.038 13.601 13.601 0 0 1-4.578 7.695 1.292 1.292 0 0 0-.296.352 1.318 1.318 0 0 0 .084 1.444l6.652 8.962a1.325 1.325 0 0 0 .893.522 1.332 1.332 0 0 0 .994-.281 27.81 27.81 0 0 0 9.868-16.498 1.332 1.332 0 0 0-.227-1.004zm-12.904-9.219c.026.155.081.3.156.43a1.319 1.319 0 0 0 1.295.65l11.088-1.282a1.321 1.321 0 0 0 .897-.51c.22-.285.308-.646.256-1a27.784 27.784 0 0 0-9.355-16.793 1.325 1.325 0 0 0-.982-.31 1.32 1.32 0 0 0-.905.487l-6.979 8.703a1.315 1.315 0 0 0 .154 1.812 13.607 13.607 0 0 1 4.375 7.813zm-21.682-13.14c.252.656.979 1 1.643.773a13.6 13.6 0 0 1 8.956.118 1.316 1.316 0 0 0 .45.08 1.317 1.317 0 0 0 1.21-.796l4.433-10.244a1.315 1.315 0 0 0 .008-1.03 1.312 1.312 0 0 0-.74-.722 27.796 27.796 0 0 0-19.22-.296 1.325 1.325 0 0 0-.76.694 1.32 1.32 0 0 0-.03 1.028l4.05 10.396zm5.716 9.839a6.697 6.697 0 0 0 0 13.392 6.697 6.697 0 0 0 0-13.392zm70.798 37.076-4.925 7.983h-66.49c-21.084 0-38.239-17.158-38.239-38.24 0-21.087 17.155-38.242 38.24-38.242 21.087 0 38.242 17.155 38.242 38.241 0 12.3-5.843 23.257-14.895 30.258h48.067zm-12.554 1.966h2.88l1.2-1.427h-2.883l-1.197 1.427zm-6.416 0h2.881l1.2-1.427h-2.885l-1.196 1.427zm-5.824 0h2.88l1.2-1.427h-2.884l-1.196 1.427zm-.073 3.023h16.703l1.846-2.768H88.806L86.96 75.44zm-6.096-3.023h2.881l1.196-1.427h-2.88l-1.197 1.427zm-6.4 0h2.882l1.196-1.427h-2.88l-1.197 1.427zm-6.745 0H70.6l1.196-1.427h-2.88l-1.197 1.427zm-27.306 3.381c19.634 0 35.605-15.973 35.605-35.605 0-19.632-15.971-35.604-35.605-35.604C20.78 4.59 4.81 20.561 4.81 40.193c0 19.632 15.971 35.605 35.603 35.605zm19.532.412h-3.072l-1.235 1.522h3.07l1.237-1.522zm1.372-3.793h2.881l1.196-1.427h-2.88l-1.197 1.427zm5.454 3.793h-3.074l-1.234 1.522h3.073l1.235-1.522zm7.196 0h-3.074l-1.234 1.522h3.073l1.235-1.522zm6.827 0H77.72l-1.232 1.522h3.071l1.236-1.522zm1.42-3.54H65.51l-1.846 2.768h16.702l1.848-2.768zm5.158 3.54h-3.073l-1.234 1.522h3.073l1.234-1.522zm6.212 0H90.51l-1.235 1.522h3.073l1.235-1.522zm6.844 0h-3.073l-1.235 1.522h3.071l1.237-1.522zm6.826 0h-3.074l-1.234 1.522h3.073l1.235-1.522zm1.301-3.793 1.197-1.427h-2.884l-1.193 1.427h2.88z" stroke="null"/><text stroke="#000" transform="matrix(1.49265 0 0 1.49265 -92.084 -62.909)" font-weight="bold" xml:space="preserve" font-family="Helvetica, Arial, sans-serif" font-size="24" y="77.112" x="120.589" stroke-width="0" fill="#ffffff">CINEMANIA</text></g></svg>